<?xml version="1.0" encoding="UTF-8"?>
<svg id="_レイヤー_1" data-name="レイヤー 1" xmlns="http://www.w3.org/2000/svg" viewBox="0 0 131.75 36.17">
  <defs>
    <style>
      .cls-1 {
        fill: #e6e6e6;
      }
    </style>
  </defs>
  <g>
    <path class="cls-1" d="M55.39,0v5.04h-7.11v21.16h-6.37V5.04h-7.04V0h20.53Z"/>
    <path class="cls-1" d="M81.44,0l-9.08,17.49v8.71h-6.37v-8.71L56.91,0h7.26l5.04,10.67,5.04-10.67h7.19Z"/>
    <path class="cls-1" d="M112.6.19v26.01h-6.34V9.93l-5.63,16.27h-5.48l-5.67-16.3v16.3h-6.34V.19h7.74l7.08,18.12L104.89.19h7.71Z"/>
    <path class="cls-1" d="M123.31,21.34h8.45v4.85h-14.78V0h6.34v21.34Z"/>
  </g>
  <g>
    <circle class="cls-1" cx="19.43" cy="3.47" r="2.22"/>
    <circle class="cls-1" cx="9.03" cy="3.47" r="2.22"/>
    <rect class="cls-1" x="6.81" y="8.5" width="14.83" height="4.01"/>
    <path class="cls-1" d="M7.14,24.43c0-4.79,2.62-8.69,9.1-8.69h5.4v4.01h-5.81c-3.09,0-4.68,2.1-4.68,4.68h-4.01Z"/>
    <rect class="cls-1" x="23.31" y="1.25" width="4.01" height="25.11"/>
    <path class="cls-1" d="M0,20.27V1.25h4.01v19.02c0,1.19.97,2.15,2.15,2.15h15.48v4.01H6.16C2.77,26.44,0,23.67,0,20.27Z"/>
  </g>
  <g>
    <path class="cls-1" d="M16.74,30.47v.79h-1.12v3.32h-1v-3.32h-1.11v-.79h3.22Z"/>
    <path class="cls-1" d="M17.91,31.33l.78,1.99.73-1.99h1.1l-2.02,4.79h-1.09l.76-1.67-1.36-3.12h1.11Z"/>
    <path class="cls-1" d="M23.59,31.49c.21.13.38.33.5.58.12.25.18.55.18.89s-.06.63-.18.88c-.12.25-.29.45-.5.58-.21.13-.45.2-.72.2-.25,0-.46-.06-.64-.17-.18-.11-.31-.27-.39-.46v2.14h-.99v-4.79h.99v.59c.08-.19.21-.35.39-.46.18-.11.39-.17.64-.17.27,0,.51.07.72.2ZM22.04,32.38c-.13.14-.2.33-.2.58s.07.43.2.58.31.21.51.21.38-.07.52-.21c.13-.14.19-.33.19-.58s-.06-.44-.19-.58c-.13-.14-.3-.21-.52-.21s-.38.07-.51.21Z"/>
    <path class="cls-1" d="M27.85,33.14h-2.25c.01.24.07.42.19.53.11.11.26.16.43.16.15,0,.27-.04.37-.11.1-.07.16-.17.19-.29h1.05c-.04.23-.14.43-.28.61s-.33.32-.55.42c-.22.1-.47.15-.74.15-.32,0-.6-.07-.85-.2s-.44-.33-.58-.58c-.14-.25-.21-.55-.21-.88s.07-.64.21-.89c.14-.25.33-.44.58-.58s.53-.2.85-.2.61.07.85.2.43.32.57.56c.13.24.2.51.2.82,0,.08,0,.17-.03.27ZM26.7,32.24c-.12-.11-.26-.16-.44-.16s-.33.05-.45.16-.19.27-.2.48h1.27c0-.21-.05-.37-.17-.48Z"/>
    <path class="cls-1" d="M32.74,30.84c.34.28.56.65.67,1.12h-1.05c-.08-.19-.2-.34-.36-.45-.16-.11-.35-.16-.57-.16-.29,0-.53.11-.7.32-.18.21-.27.5-.27.86s.09.64.27.85c.18.21.41.32.7.32.22,0,.41-.05.57-.16s.28-.26.36-.44h1.05c-.1.47-.32.84-.67,1.11-.34.28-.78.42-1.3.42-.4,0-.75-.09-1.05-.26-.3-.18-.54-.42-.7-.74s-.25-.68-.25-1.09.08-.77.25-1.09.4-.57.7-.74c.3-.18.65-.26,1.05-.26.52,0,.96.14,1.3.41Z"/>
    <path class="cls-1" d="M36.91,31.67c.22.25.33.59.33,1.02v1.88h-1v-1.77c0-.22-.06-.39-.17-.51s-.27-.18-.46-.18c-.2,0-.36.06-.48.19s-.18.31-.18.55v1.72h-.99v-4.31h.99v1.65c.09-.19.23-.35.42-.46.18-.11.4-.17.65-.17.37,0,.67.12.89.37Z"/>
    <path class="cls-1" d="M40.95,33.14h-2.25c.01.24.07.42.19.53.11.11.26.16.43.16.15,0,.27-.04.37-.11.1-.07.16-.17.19-.29h1.05c-.04.23-.14.43-.28.61s-.33.32-.55.42c-.22.1-.47.15-.74.15-.32,0-.6-.07-.85-.2s-.44-.33-.58-.58c-.14-.25-.21-.55-.21-.88s.07-.64.21-.89c.14-.25.33-.44.58-.58s.53-.2.85-.2.61.07.85.2.43.32.57.56c.13.24.2.51.2.82,0,.08,0,.17-.03.27ZM39.8,32.24c-.12-.11-.26-.16-.44-.16s-.33.05-.45.16-.19.27-.2.48h1.27c0-.21-.05-.37-.17-.48Z"/>
    <path class="cls-1" d="M44.01,31.64c.28.23.46.55.54.95h-1.05c-.03-.14-.1-.25-.19-.33s-.22-.12-.37-.12c-.17,0-.32.07-.43.21s-.17.34-.17.6.06.46.17.6c.11.14.26.21.43.21.15,0,.27-.04.37-.12.1-.08.16-.19.19-.33h1.05c-.07.4-.25.72-.54.95-.28.23-.63.35-1.05.35-.32,0-.6-.07-.85-.2-.25-.13-.44-.33-.58-.58-.14-.25-.21-.55-.21-.88s.07-.64.21-.89c.14-.25.33-.44.58-.58s.53-.2.85-.2c.42,0,.77.12,1.05.35Z"/>
    <path class="cls-1" d="M47.03,34.58l-.97-1.38v1.38h-1v-4.31h1v2.36l.97-1.3h1.17l-1.31,1.62,1.34,1.62h-1.2Z"/>
    <path class="cls-1" d="M51.65,33.14h-2.25c.01.24.07.42.19.53s.26.16.43.16c.15,0,.27-.04.37-.11.1-.07.16-.17.19-.29h1.05c-.04.23-.14.43-.28.61s-.33.32-.55.42c-.22.1-.47.15-.74.15-.32,0-.6-.07-.85-.2-.25-.13-.44-.33-.58-.58-.14-.25-.21-.55-.21-.88s.07-.64.21-.89c.14-.25.33-.44.58-.58s.53-.2.85-.2.6.07.85.2c.25.13.43.32.57.56.13.24.2.51.2.82,0,.08,0,.17-.03.27ZM50.5,32.24c-.12-.11-.26-.16-.44-.16-.18,0-.33.05-.45.16s-.19.27-.2.48h1.27c0-.21-.05-.37-.17-.48Z"/>
    <path class="cls-1" d="M53.67,31.47c.2-.12.41-.17.64-.17v1.06h-.29c-.26,0-.47.06-.61.17s-.22.3-.22.57v1.48h-.99v-3.25h.99v.61c.12-.2.28-.35.48-.47Z"/>
    <path class="cls-1" d="M57.48,30.89c-.16,0-.28.04-.35.1-.07.07-.12.18-.12.34h.59v.84h-.59v2.41h-1v-2.41h-.39v-.84h.39v-.04c0-.4.12-.71.35-.93.24-.22.58-.33,1.02-.33.09,0,.16,0,.21,0v.86h-.11Z"/>
    <path class="cls-1" d="M60.41,31.49c.25.13.45.33.6.58.15.25.22.55.22.88s-.07.63-.22.88c-.14.25-.34.45-.6.58s-.54.2-.86.2-.61-.07-.87-.2c-.26-.13-.46-.33-.6-.58-.15-.25-.22-.55-.22-.88s.07-.63.22-.88c.15-.25.35-.44.6-.58.26-.13.54-.2.87-.2s.61.07.86.2ZM59.07,32.36c-.13.14-.2.34-.2.6s.07.46.2.59.29.2.48.2.35-.07.48-.2.19-.33.19-.59-.06-.46-.19-.6-.29-.21-.48-.21-.35.07-.48.21Z"/>
    <path class="cls-1" d="M63.22,31.47c.2-.12.41-.17.64-.17v1.06h-.29c-.26,0-.47.06-.61.17s-.22.3-.22.57v1.48h-1v-3.25h1v.61c.12-.2.28-.35.48-.47Z"/>
    <path class="cls-1" d="M70.06,30.5v4.08h-.99v-2.55l-.88,2.55h-.86l-.89-2.56v2.56h-1v-4.08h1.22l1.11,2.84,1.09-2.84h1.21Z"/>
    <path class="cls-1" d="M72.63,31.46c.18.11.31.27.4.46v-.59h.99v3.25h-.99v-.59c-.09.19-.22.35-.4.46-.18.11-.39.17-.64.17-.27,0-.51-.07-.72-.2-.21-.13-.38-.33-.5-.58-.12-.25-.18-.55-.18-.88s.06-.64.18-.89c.12-.25.29-.44.5-.58.21-.13.45-.2.72-.2.25,0,.46.06.64.17ZM71.79,32.37c-.13.14-.2.33-.2.58s.07.44.2.58.3.21.51.21.38-.07.51-.21.2-.34.2-.58-.07-.44-.2-.58-.31-.21-.51-.21-.38.07-.51.21Z"/>
    <path class="cls-1" d="M76.17,31.47c.2-.12.41-.17.64-.17v1.06h-.29c-.26,0-.47.06-.61.17s-.22.3-.22.57v1.48h-1v-3.25h1v.61c.12-.2.28-.35.48-.47Z"/>
    <path class="cls-1" d="M79.19,34.58l-.97-1.38v1.38h-.99v-4.31h.99v2.36l.97-1.3h1.17l-1.31,1.62,1.34,1.62h-1.2Z"/>
    <path class="cls-1" d="M83.98,31.33v3.25h-1v-.59c-.09.19-.23.34-.42.45-.18.11-.4.17-.64.17-.37,0-.67-.12-.89-.37-.22-.25-.33-.59-.33-1.02v-1.88h.99v1.76c0,.22.06.39.17.51.11.12.27.18.46.18s.36-.06.48-.19.17-.31.17-.55v-1.72h1Z"/>
    <path class="cls-1" d="M87.41,31.49c.21.13.38.33.5.58.12.25.18.55.18.89s-.06.63-.18.88c-.12.25-.29.45-.5.58-.21.13-.45.2-.72.2-.25,0-.46-.06-.64-.17s-.31-.27-.39-.46v2.14h-1v-4.79h1v.59c.08-.19.21-.35.39-.46s.39-.17.64-.17c.27,0,.51.07.72.2ZM85.86,32.38c-.13.14-.2.33-.2.58s.07.43.2.58.3.21.51.21.38-.07.51-.21.2-.33.2-.58-.07-.44-.2-.58-.3-.21-.51-.21-.38.07-.51.21Z"/>
    <path class="cls-1" d="M90.77,33.82h1.33v.76h-2.32v-4.11h.99v3.35Z"/>
    <path class="cls-1" d="M94.43,31.46c.18.11.31.27.4.46v-.59h.99v3.25h-.99v-.59c-.09.19-.22.35-.4.46-.18.11-.39.17-.64.17-.27,0-.51-.07-.72-.2-.21-.13-.38-.33-.5-.58-.12-.25-.18-.55-.18-.88s.06-.64.18-.89c.12-.25.29-.44.5-.58.21-.13.45-.2.72-.2.25,0,.46.06.64.17ZM93.6,32.37c-.13.14-.2.33-.2.58s.07.44.2.58.3.21.51.21.38-.07.51-.21.2-.34.2-.58-.07-.44-.2-.58-.31-.21-.51-.21-.38.07-.51.21Z"/>
    <path class="cls-1" d="M99.45,31.67c.22.25.33.59.33,1.02v1.88h-.99v-1.77c0-.22-.06-.39-.17-.51s-.27-.18-.46-.18c-.2,0-.36.06-.48.19-.12.13-.18.31-.18.55v1.72h-1v-3.25h1v.59c.09-.19.23-.35.42-.46s.4-.17.65-.17c.37,0,.67.12.89.37Z"/>
    <path class="cls-1" d="M102.31,31.46c.18.11.31.27.4.46v-.59h.99v3.23c0,.3-.06.58-.17.82s-.29.44-.54.58c-.24.14-.54.21-.9.21-.49,0-.88-.12-1.17-.35s-.47-.54-.53-.94h.98c.03.13.1.23.21.31.11.07.25.11.43.11.21,0,.37-.06.5-.18s.19-.31.19-.57v-.57c-.09.19-.22.35-.4.46-.18.11-.39.17-.64.17-.27,0-.51-.07-.72-.2-.21-.13-.38-.33-.5-.58-.12-.25-.18-.55-.18-.88s.06-.64.18-.89c.12-.25.29-.44.5-.58.21-.13.45-.2.72-.2.25,0,.46.06.64.17ZM101.47,32.37c-.13.14-.2.33-.2.58s.07.44.2.58.3.21.51.21.38-.07.51-.21.2-.34.2-.58-.07-.44-.2-.58-.31-.21-.51-.21-.38.07-.51.21Z"/>
    <path class="cls-1" d="M107.61,31.33v3.25h-1v-.59c-.09.19-.23.34-.42.45s-.4.17-.64.17c-.37,0-.67-.12-.89-.37-.22-.25-.33-.59-.33-1.02v-1.88h.99v1.76c0,.22.06.39.17.51s.27.18.46.18.36-.06.48-.19.17-.31.17-.55v-1.72h1Z"/>
    <path class="cls-1" d="M110.17,31.46c.18.11.31.27.4.46v-.59h.99v3.25h-.99v-.59c-.08.19-.22.35-.4.46s-.39.17-.64.17c-.27,0-.51-.07-.72-.2-.21-.13-.38-.33-.5-.58-.12-.25-.18-.55-.18-.88s.06-.64.18-.89c.12-.25.29-.44.5-.58.21-.13.45-.2.72-.2.25,0,.46.06.64.17ZM109.33,32.37c-.13.14-.19.33-.19.58s.06.44.19.58.3.21.51.21.38-.07.52-.21.2-.34.2-.58-.07-.44-.2-.58-.31-.21-.52-.21-.38.07-.51.21Z"/>
    <path class="cls-1" d="M114.11,31.46c.18.11.31.27.4.46v-.59h.99v3.23c0,.3-.06.58-.17.82s-.29.44-.54.58-.54.21-.9.21c-.49,0-.88-.12-1.17-.35s-.47-.54-.53-.94h.98c.03.13.1.23.21.31.11.07.25.11.43.11.21,0,.37-.06.5-.18.13-.12.19-.31.19-.57v-.57c-.08.19-.22.35-.4.46s-.39.17-.64.17c-.27,0-.51-.07-.72-.2-.21-.13-.38-.33-.5-.58-.12-.25-.18-.55-.18-.88s.06-.64.18-.89c.12-.25.29-.44.5-.58.21-.13.45-.2.72-.2.25,0,.46.06.64.17ZM113.28,32.37c-.13.14-.19.33-.19.58s.06.44.19.58.3.21.51.21.38-.07.52-.21.2-.34.2-.58-.07-.44-.2-.58-.31-.21-.52-.21-.38.07-.51.21Z"/>
    <path class="cls-1" d="M119.24,33.14h-2.25c.01.24.07.42.19.53.11.11.26.16.43.16.15,0,.27-.04.37-.11.1-.07.16-.17.19-.29h1.05c-.04.23-.14.43-.28.61s-.33.32-.55.42c-.22.1-.47.15-.74.15-.32,0-.6-.07-.85-.2s-.44-.33-.58-.58c-.14-.25-.21-.55-.21-.88s.07-.64.21-.89c.14-.25.33-.44.58-.58s.53-.2.85-.2.61.07.85.2.43.32.57.56c.13.24.2.51.2.82,0,.08,0,.17-.03.27ZM118.09,32.24c-.12-.11-.26-.16-.44-.16s-.33.05-.45.16-.19.27-.2.48h1.27c0-.21-.05-.37-.17-.48Z"/>
  </g>
</svg>